<svg width="270" height="270" viewBox="0 0 270 270" fill="none" xmlns="http://www.w3.org/2000/svg">
<path fill-rule="evenodd" clip-rule="evenodd" d="M100.291 94.0815H150.43V119.057C157.653 104.693 176.175 91.7865 203.999 91.7865C257.337 91.7865 270 120.38 270 172.84V270H216V184.788C216 154.912 208.778 138.064 190.391 138.064C164.889 138.064 154.292 156.222 154.292 184.775V270H100.291V94.0815ZM7.695 270H61.695V91.7865H7.695V270ZM69.4305 34.425C69.4325 38.9512 68.5349 43.4327 66.7897 47.6089C65.0446 51.7852 62.4868 55.5729 59.265 58.752C52.7364 65.2404 43.8994 68.8723 34.695 68.85C25.5068 68.8438 16.6902 65.2212 10.152 58.7655C6.94185 55.5756 4.39271 51.7836 2.65064 47.6068C0.90857 43.43 0.00781828 38.9505 0 34.425C0 25.2855 3.645 16.5375 10.1655 10.0845C16.6979 3.62014 25.5182 -0.00403934 34.7085 3.37857e-06C43.9155 3.37857e-06 52.7445 3.6315 59.265 10.0845C65.772 16.5375 69.4305 25.2855 69.4305 34.425Z" fill="#666666"/>
</svg>
