<svg width="272" height="272" viewBox="0 0 272 272" fill="none" xmlns="http://www.w3.org/2000/svg">
<path d="M62.1476 252.845L73.7035 250.136C81.963 254.644 90.6875 258.243 99.7239 260.868M15.3799 227.582L10.6633 246.858C8.5226 255.626 16.3898 263.565 25.1761 261.503L44.448 256.993M19.6068 210.307L22.334 199.139C17.7526 190.914 14.0885 182.214 11.3949 173.193M260.605 98.8073C257.911 89.7863 254.241 81.0861 249.66 72.8613M11.4312 98.638C14.1337 89.6222 17.8119 80.9282 22.4005 72.7102M237.04 54.1894C231.107 46.8763 224.405 40.223 217.048 34.3445M35.063 54.0685C40.9973 46.7621 47.7042 40.1186 55.0666 34.2538M198.296 21.8643C190.037 17.3557 181.312 13.757 172.276 11.1316M73.8366 21.7857C82.1046 17.279 90.8398 13.6883 99.8871 11.0771M150.168 6.76591C140.811 5.75285 131.372 5.74474 122.013 6.74172M6.85967 151.098C5.71344 141.065 5.71344 130.935 6.85967 120.902M260.569 173.362C257.866 182.378 254.188 191.072 249.599 199.29M236.937 217.932C231.003 225.238 224.296 231.881 216.933 237.746M198.163 250.214C189.895 254.721 181.16 258.312 172.113 260.923M265.14 151.098C266.287 141.065 266.287 130.935 265.14 120.902M121.832 265.234C131.189 266.247 140.628 266.255 149.987 265.258M46.2379 193.183C17.1638 147.543 26.966 87.349 69.0231 53.2945C111.08 19.24 171.998 22.1666 210.596 60.097C249.194 98.0273 253.185 158.88 219.866 201.521C186.547 244.162 126.53 255.015 80.3915 226.735L36.345 235.829L46.2379 193.183Z" stroke="#666666" stroke-width="12" stroke-linecap="round" stroke-linejoin="round"/>
</svg>
