<svg width="270" height="270" viewBox="0 0 270 270" fill="none" xmlns="http://www.w3.org/2000/svg">
<path d="M33.75 7.5H236.25C250.738 7.5 262.5 19.2621 262.5 33.75V236.25C262.5 250.738 250.738 262.5 236.25 262.5H33.75C19.2621 262.5 7.5 250.738 7.5 236.25V33.75C7.5 19.2621 19.2621 7.5 33.75 7.5ZM51.2832 27.6172C38.2116 27.6172 27.6084 38.234 27.6084 51.292V204.525C27.6086 217.56 38.1974 228.242 51.2832 228.242H101.25C114.361 228.242 124.967 217.636 124.967 204.525V51.292C124.967 38.2103 114.348 27.6172 101.25 27.6172H51.2832ZM168.75 27.6172C155.715 27.6172 145.033 38.206 145.033 51.292V137.025C145.033 150.071 155.624 160.742 168.75 160.742H218.717C231.814 160.742 242.391 150.058 242.392 137.025V51.292C242.392 38.2204 231.775 27.6172 218.717 27.6172H168.75Z" stroke="#666666" stroke-width="15"/>
</svg>
